PathFileType	4	(X/Y/Z)	Patient5_TMGait_0pt45_1_left_08.trc.trc
DataRate	CameraRate	NumFrames	NumMarkers	Units	OrigDataRate	OrigDataStartFrame	OrigNumFrames
57.851239669421	57.851239669421	4	32	mm	57.851239669421	53	       141
Frame#	Time	R.ASIS			L.ASIS			Chest			R.Shoulder			Neck			L.Shoulder			L.Elbow			L.Wrist			R.Elbow			R.Wrist			L.Thigh.Superior			L.Thigh.Lateral			L.Thigh.Inferior			L.Patella			L.Shank.Superior			L.Shank.Lateral			L.Shank.Inferior			L.Heel			L.Midfoot.Lateral			L.Midfoot.Superior			L.Toe			R.Thigh.Superior			R.Thigh.Lateral			R.Thigh.Inferior			R.Patella			R.Shank.Superior			R.Shank.Lateral			R.Shank.Inferior			R.Heel			R.Midfoot.Lateral			R.Midfoot.Superior			R.Toe			
		X1	Y1	Z1	X2	Y2	Z2	X3	Y3	Z3	X4	Y4	Z4	X5	Y5	Z5	X6	Y6	Z6	X7	Y7	Z7	X8	Y8	Z8	X9	Y9	Z9	X10	Y10	Z10	X11	Y11	Z11	X12	Y12	Z12	X13	Y13	Z13	X14	Y14	Z14	X15	Y15	Z15	X16	Y16	Z16	X17	Y17	Z17	X18	Y18	Z18	X19	Y19	Z19	X20	Y20	Z20	X21	Y21	Z21	X22	Y22	Z22	X23	Y23	Z23	X24	Y24	Z24	X25	Y25	Z25	X26	Y26	Z26	X27	Y27	Z27	X28	Y28	Z28	X29	Y29	Z29	X30	Y30	Z30	X31	Y31	Z31	X32	Y32	Z32	

53	12.648857142857	1054.777574973557	1021.835378886727	526.637333062828	1079.198408969665	963.623993666743	283.825066047532	1139.731810974550	1450.297662741115	404.215817063077	1006.772470910157	1517.786988736794	543.101248916494	1027.514004117754	1575.701847771105	359.341614411875	1126.892382224208	1516.665843075782	200.494115721110	1108.085764680261	1194.532281135133	62.613999449282	1262.111753285606	952.708964806555	88.320594549154	881.496750877657	1202.451810607226	661.199119564129	1093.522531544345	1004.243792142650	645.442280630870	1097.808502648290	749.611379215547	287.481272938704	1025.869457676212	676.750146699973	250.416000593353	1099.255256467528	622.575567749166	315.420694634496	1099.849157702840	504.988682906959	327.253577896749	1050.863669976573	403.143687759377	352.486698232197	983.800632509335	332.084778216076	276.097425634990	1015.122984235519	281.174326840502	366.405826977889	878.202399095307	51.557183779928	377.198034679808	968.307786195216	26.769546955738	319.596233142886	1064.505243679421	88.777837157365	365.534244409466	1170.891019039697	45.538702241527	375.329099004906	1085.037161141087	798.535017730715	579.333723523625	1001.229604037396	724.390011001357	639.197443181912	1093.322728997726	666.806517801876	587.905129369223	1095.523460224143	568.613004098067	637.910780128703	1034.698181591926	464.015691963498	605.967322245366	934.305582328019	424.951336387343	676.100920340343	983.249107197667	333.569949751323	613.988276590913	819.392963986934	146.567885177498	575.445359599349	867.918648331316	98.234609885377	663.728800792124	989.202340749781	130.449980893407	670.773532016695	1072.894888520737	60.126227413453	692.573578632294	
54	12.666142857143	1052.758480090730	1022.497882517861	525.957364728096	1076.805182148903	963.688463941260	282.929269389203	1137.351459398104	1450.618211127117	401.865156915712	1004.630301095523	1518.403857158728	540.753687907076	1025.101355792997	1575.995564320310	356.869678199399	1124.348550957543	1516.517892308096	198.098645287914	1107.490913267362	1193.695318963829	61.508236713972	1262.980482923857	952.938100929706	88.314930774971	879.934451028907	1203.183861450825	659.713292716293	1091.720150622417	1004.784528274534	642.775372493824	1094.279667016040	749.469361681805	286.697862268957	1021.429764572942	676.974721988069	250.034934747288	1094.781437672105	622.179622351707	314.125232168689	1094.425651780699	504.482247818748	325.811659381339	1044.924774447156	402.999993517844	351.420411274979	976.896654904999	332.384628931817	275.611334537816	1008.731425431371	281.265415067625	365.667778791495	870.476662970331	51.758986037290	377.061532348478	960.544367988811	26.738857165164	319.515436914518	1056.848254869610	88.802467593395	365.158037313451	1163.096906406369	45.505965662518	375.209310047995	1082.207191617777	799.257809197136	578.027980120840	998.709333285331	725.530259225341	638.844205542899	1090.874908397407	668.415087281103	587.427698734525	1094.947401763210	571.595534697032	638.433442408237	1039.954608591843	465.927647664298	607.347836204628	941.349758954415	422.310566978766	676.985408267863	996.311206958402	332.966965166032	616.919323601318	844.156851835010	135.145451486080	579.521495052424	895.118427240367	91.330079519498	669.067571896507	1013.999625393502	131.326847562352	676.710442698813	1101.987857527867	66.833112595591	700.444440368078	
55	12.683428571429	1050.809024109268	1023.095414526086	525.920045929884	1074.260038459448	963.798149076721	282.230311772877	1134.812823274997	1450.836244047607	399.736981453362	1002.349308183435	1519.041167506640	538.583864474963	1022.564599083027	1576.234914338698	354.550822258434	1121.708784463577	1516.200967682553	195.883065805354	1106.531990137320	1192.708849166620	60.625683244751	1263.220428652680	952.852336103998	88.464662758042	878.502362871941	1203.890056869908	658.529545141075	1090.224014986480	1005.504463940137	640.357179124873	1090.689547605382	749.332656240019	285.973131979474	1017.064724388426	677.205447543758	249.595225678458	1090.327218181689	621.838545415373	312.945775568530	1089.050454576917	504.003447248443	324.444162854724	1039.015301958071	402.873416344935	350.384619688520	970.039798610631	332.731183959991	275.123598240910	1002.385358050651	281.380896831295	364.955039690765	862.756362337536	51.997036585980	376.886462571437	952.788390087426	26.701965362899	319.418247982471	1049.207530024710	88.839546435329	364.747516836503	1155.302096533231	45.478556621525	375.086329527256	1079.479524169726	800.233815451341	577.418053325288	996.726417463079	726.621552546071	638.788936019742	1089.351652148569	670.364246330084	587.386401289116	1095.450025919985	574.780742959201	639.194079747532	1046.143283811273	468.340820785544	608.641572006873	949.452256670499	420.273359746327	677.820413563227	1009.932328401260	333.352304178464	619.380055655786	869.173451859875	126.244572645084	583.127545893887	922.495207626350	86.233589017109	673.177830070548	1038.663095279996	133.441429591639	681.061425952902	1130.483002158028	74.643501738945	705.713923463377	
56	12.700714285714	1048.961958075510	1023.665206593851	526.433865195319	1071.543008192141	963.971621551870	281.711193524060	1132.102756715570	1450.974902580189	397.860859613258	999.898253905886	1519.710374462615	536.616432110916	1019.893850099001	1576.436184046896	352.426109706909	1118.986931429878	1515.755595996841	193.891721566832	1105.216750831811	1191.625963369875	59.974134746081	1262.835547993522	952.494050057712	88.759465580196	877.103443472716	1204.582929400774	657.598163280027	1088.995191122529	1006.472184661365	638.236755241004	1086.996506649578	749.182463097887	285.319718211758	1012.731031843549	677.448274408290	249.105858285828	1085.827069747741	621.557472598179	311.931845620819	1083.651175963015	503.555295927845	323.187133540724	1033.085525106343	402.768537721921	349.410461113098	963.194642311111	333.114195879495	274.653966783158	996.034223075136	281.512200584862	364.286651679103	855.032932738633	52.253151379663	376.693201086331	945.033544354647	26.667057568828	319.310771730374	1041.574046825914	88.881862953456	364.326220579170	1147.503777823144	45.462964360265	374.959492019583	1077.162298188777	801.599701203642	577.490659044152	995.613964100991	727.719116454389	638.971380502094	1089.077177513498	672.740383146960	587.687093304111	1097.300903484174	578.197417386949	640.055911335068	1053.298003860173	471.213732616797	609.769573409721	958.554289671822	418.989068771211	678.551793722976	1023.850345643412	334.681058059083	621.294746691216	893.671683300414	119.942147400973	586.142701031287	949.240517426857	83.030507651969	676.092658739434	1062.561699808265	136.674103249856	683.926556303894	1157.685796768938	83.198066851962	708.650071918233	
